<svg width="948" height="249" viewBox="0 0 948 249" fill="none" xmlns="http://www.w3.org/2000/svg">
<mask id="path-1-inside-1_101_7" fill="white">
<path fill-rule="evenodd" clip-rule="evenodd" d="M214 4H231V25H214C191.909 25 174 42.9086 174 65V81H153V65C153 31.3106 180.311 4 214 4ZM153 171V188C153 221.689 180.311 249 214 249H231V228H214C191.909 228 174 210.091 174 188V171H153ZM777 171V188C777 210.091 759.091 228 737 228H721V249H737C770.689 249 798 221.689 798 188V171H777ZM798 81V65C798 31.3106 770.689 4 737 4H721V25H737C759.091 25 777 42.9086 777 65V81H798Z"/>
</mask>
<path fill-rule="evenodd" clip-rule="evenodd" d="M214 4H231V25H214C191.909 25 174 42.9086 174 65V81H153V65C153 31.3106 180.311 4 214 4ZM153 171V188C153 221.689 180.311 249 214 249H231V228H214C191.909 228 174 210.091 174 188V171H153ZM777 171V188C777 210.091 759.091 228 737 228H721V249H737C770.689 249 798 221.689 798 188V171H777ZM798 81V65C798 31.3106 770.689 4 737 4H721V25H737C759.091 25 777 42.9086 777 65V81H798Z" fill="#80B4DA"/>
<path d="M231 4H232V3H231V4ZM231 25V26H232V25H231ZM174 81V82H175V81H174ZM153 81H152V82H153V81ZM153 171V170H152V171H153ZM231 249V250H232V249H231ZM231 228H232V227H231V228ZM174 171H175V170H174V171ZM777 171V170H776V171H777ZM721 228V227H720V228H721ZM721 249H720V250H721V249ZM798 171H799V170H798V171ZM798 81V82H799V81H798ZM721 4V3H720V4H721ZM721 25H720V26H721V25ZM777 81H776V82H777V81ZM231 3H214V5H231V3ZM232 25V4H230V25H232ZM214 26H231V24H214V26ZM175 65C175 43.4609 192.461 26 214 26V24C191.356 24 173 42.3563 173 65H175ZM175 81V65H173V81H175ZM153 82H174V80H153V82ZM152 65V81H154V65H152ZM214 3C179.758 3 152 30.7583 152 65H154C154 31.8629 180.863 5 214 5V3ZM152 171V188H154V171H152ZM152 188C152 222.242 179.758 250 214 250V248C180.863 248 154 221.137 154 188H152ZM214 250H231V248H214V250ZM232 249V228H230V249H232ZM231 227H214V229H231V227ZM214 227C192.461 227 175 209.539 175 188H173C173 210.644 191.356 229 214 229V227ZM175 188V171H173V188H175ZM174 170H153V172H174V170ZM778 188V171H776V188H778ZM737 229C759.644 229 778 210.644 778 188H776C776 209.539 758.539 227 737 227V229ZM721 229H737V227H721V229ZM722 249V228H720V249H722ZM737 248H721V250H737V248ZM797 188C797 221.137 770.137 248 737 248V250C771.242 250 799 222.242 799 188H797ZM797 171V188H799V171H797ZM798 170H777V172H798V170ZM797 65V81H799V65H797ZM737 5C770.137 5 797 31.8629 797 65H799C799 30.7583 771.242 3 737 3V5ZM721 5H737V3H721V5ZM722 25V4H720V25H722ZM737 24H721V26H737V24ZM778 65C778 42.3563 759.644 24 737 24V26C758.539 26 776 43.4609 776 65H778ZM778 81V65H776V81H778ZM777 82H798V80H777V82Z" fill="black" mask="url(#path-1-inside-1_101_7)"/>
<path d="M248.392 143V175H233.032V87.96H262.088C270.877 87.96 277.619 90.2213 282.312 94.744C287.091 99.1813 289.48 105.155 289.48 112.664V118.168C289.48 123.117 288.413 127.469 286.28 131.224C284.147 134.979 281.075 137.837 277.064 139.8C284.061 151.747 290.035 163.48 294.984 175H277.448C273.181 164.333 268.104 153.667 262.216 143H248.392ZM262.088 102.04H248.392V128.92H262.088C265.843 128.92 268.701 127.981 270.664 126.104C272.712 124.141 273.736 121.496 273.736 118.168V112.664C273.736 109.421 272.712 106.861 270.664 104.984C268.701 103.021 265.843 102.04 262.088 102.04ZM361.464 160.28V175H311.032V87.96H360.184V102.68H326.392V123.544H356.344V138.264H326.392V160.28H361.464ZM398.601 162.072C408.5 162.072 413.449 158.403 413.449 151.064C413.449 148.077 412.681 145.731 411.145 144.024C409.694 142.317 406.964 140.824 402.953 139.544L392.457 136.088C379.913 131.992 373.641 123.757 373.641 111.384C373.641 104.216 375.86 98.328 380.297 93.72C384.82 89.0267 391.86 86.68 401.417 86.68C405.428 86.68 409.396 87.1493 413.321 88.088C417.246 88.9413 421.428 90.3493 425.865 92.312L421.129 105.496C417.033 103.875 413.534 102.723 410.633 102.04C407.817 101.272 404.916 100.888 401.929 100.888C398.004 100.888 394.889 101.613 392.585 103.064C390.366 104.429 389.257 106.947 389.257 110.616C389.257 113.347 390.025 115.608 391.561 117.4C393.182 119.107 395.828 120.557 399.497 121.752L409.993 125.208C416.308 127.341 421.044 130.456 424.201 134.552C427.444 138.563 429.065 143.896 429.065 150.552C429.065 158.232 426.633 164.461 421.769 169.24C416.905 173.933 409.268 176.28 398.857 176.28C394.761 176.28 390.494 175.811 386.057 174.872C381.705 173.848 376.926 172.141 371.721 169.752L376.457 156.568C381.236 158.616 385.289 160.067 388.617 160.92C392.03 161.688 395.358 162.072 398.601 162.072ZM435.539 102.68V87.96H499.539V102.68H475.219V175H459.859V102.68H435.539ZM574.85 122.264V140.568C574.85 151.661 572.077 160.408 566.53 166.808C560.983 173.123 552.877 176.28 542.21 176.28C531.458 176.28 523.309 173.123 517.762 166.808C512.301 160.408 509.57 151.661 509.57 140.568V122.264C509.57 111.171 512.301 102.467 517.762 96.152C523.309 89.8373 531.458 86.68 542.21 86.68C552.877 86.68 560.983 89.8373 566.53 96.152C572.077 102.467 574.85 111.171 574.85 122.264ZM559.106 122.264C559.106 115.267 557.741 110.019 555.01 106.52C552.279 102.936 548.013 101.144 542.21 101.144C536.407 101.144 532.141 102.936 529.41 106.52C526.679 110.019 525.314 115.267 525.314 122.264V140.568C525.314 147.565 526.679 152.856 529.41 156.44C532.141 160.024 536.407 161.816 542.21 161.816C548.013 161.816 552.279 160.024 555.01 156.44C557.741 152.856 559.106 147.565 559.106 140.568V122.264ZM610.517 143V175H595.157V87.96H624.213C633.002 87.96 639.744 90.2213 644.437 94.744C649.216 99.1813 651.605 105.155 651.605 112.664V118.168C651.605 123.117 650.538 127.469 648.405 131.224C646.272 134.979 643.2 137.837 639.189 139.8C646.186 151.747 652.16 163.48 657.109 175H639.573C635.306 164.333 630.229 153.667 624.341 143H610.517ZM624.213 102.04H610.517V128.92H624.213C627.968 128.92 630.826 127.981 632.789 126.104C634.837 124.141 635.861 121.496 635.861 118.168V112.664C635.861 109.421 634.837 106.861 632.789 104.984C630.826 103.021 627.968 102.04 624.213 102.04ZM723.589 160.28V175H673.157V87.96H722.309V102.68H688.517V123.544H718.469V138.264H688.517V160.28H723.589Z" fill="#80B4DA"/>
<path d="M248.392 143V142H247.392V143H248.392ZM248.392 175V176H249.392V175H248.392ZM233.032 175H232.032V176H233.032V175ZM233.032 87.96V86.96H232.032V87.96H233.032ZM282.312 94.744L281.618 95.4641L281.625 95.4705L281.632 95.4768L282.312 94.744ZM286.28 131.224L287.149 131.718L287.149 131.718L286.28 131.224ZM277.064 139.8L276.624 138.902L275.656 139.375L276.201 140.305L277.064 139.8ZM294.984 175V176H296.502L295.903 174.605L294.984 175ZM277.448 175L276.52 175.371L276.771 176H277.448V175ZM262.216 143L263.091 142.517L262.806 142H262.216V143ZM248.392 102.04V101.04H247.392V102.04H248.392ZM248.392 128.92H247.392V129.92H248.392V128.92ZM270.664 126.104L271.355 126.827L271.356 126.826L270.664 126.104ZM270.664 104.984L269.957 105.691L269.972 105.706L269.988 105.721L270.664 104.984ZM247.392 143V175H249.392V143H247.392ZM248.392 174H233.032V176H248.392V174ZM234.032 175V87.96H232.032V175H234.032ZM233.032 88.96H262.088V86.96H233.032V88.96ZM262.088 88.96C270.711 88.96 277.168 91.1762 281.618 95.4641L283.006 94.0239C278.069 89.2665 271.044 86.96 262.088 86.96V88.96ZM281.632 95.4768C286.175 99.6956 288.48 105.387 288.48 112.664H290.48C290.48 104.923 288.006 98.6671 282.992 94.0112L281.632 95.4768ZM288.48 112.664V118.168H290.48V112.664H288.48ZM288.48 118.168C288.48 122.97 287.446 127.147 285.411 130.73L287.149 131.718C289.38 127.792 290.48 123.265 290.48 118.168H288.48ZM285.411 130.73C283.38 134.304 280.461 137.024 276.624 138.902L277.504 140.698C281.688 138.65 284.913 135.654 287.149 131.718L285.411 130.73ZM276.201 140.305C283.18 152.22 289.134 163.916 294.065 175.395L295.903 174.605C290.936 163.044 284.943 151.273 277.927 139.295L276.201 140.305ZM294.984 174H277.448V176H294.984V174ZM278.376 174.629C274.094 163.921 268.998 153.217 263.091 142.517L261.341 143.483C267.21 154.116 272.269 164.745 276.52 175.371L278.376 174.629ZM262.216 142H248.392V144H262.216V142ZM262.088 101.04H248.392V103.04H262.088V101.04ZM247.392 102.04V128.92H249.392V102.04H247.392ZM248.392 129.92H262.088V127.92H248.392V129.92ZM262.088 129.92C266 129.92 269.145 128.941 271.355 126.827L269.973 125.381C268.258 127.022 265.685 127.92 262.088 127.92V129.92ZM271.356 126.826C273.635 124.642 274.736 121.717 274.736 118.168H272.736C272.736 121.275 271.789 123.641 269.972 125.382L271.356 126.826ZM274.736 118.168V112.664H272.736V118.168H274.736ZM274.736 112.664C274.736 109.192 273.629 106.346 271.34 104.247L269.988 105.721C271.795 107.377 272.736 109.65 272.736 112.664H274.736ZM271.371 104.277C269.162 102.068 266.012 101.04 262.088 101.04V103.04C265.674 103.04 268.24 103.974 269.957 105.691L271.371 104.277ZM361.464 160.28H362.464V159.28H361.464V160.28ZM361.464 175V176H362.464V175H361.464ZM311.032 175H310.032V176H311.032V175ZM311.032 87.96V86.96H310.032V87.96H311.032ZM360.184 87.96H361.184V86.96H360.184V87.96ZM360.184 102.68V103.68H361.184V102.68H360.184ZM326.392 102.68V101.68H325.392V102.68H326.392ZM326.392 123.544H325.392V124.544H326.392V123.544ZM356.344 123.544H357.344V122.544H356.344V123.544ZM356.344 138.264V139.264H357.344V138.264H356.344ZM326.392 138.264V137.264H325.392V138.264H326.392ZM326.392 160.28H325.392V161.28H326.392V160.28ZM360.464 160.28V175H362.464V160.28H360.464ZM361.464 174H311.032V176H361.464V174ZM312.032 175V87.96H310.032V175H312.032ZM311.032 88.96H360.184V86.96H311.032V88.96ZM359.184 87.96V102.68H361.184V87.96H359.184ZM360.184 101.68H326.392V103.68H360.184V101.68ZM325.392 102.68V123.544H327.392V102.68H325.392ZM326.392 124.544H356.344V122.544H326.392V124.544ZM355.344 123.544V138.264H357.344V123.544H355.344ZM356.344 137.264H326.392V139.264H356.344V137.264ZM325.392 138.264V160.28H327.392V138.264H325.392ZM326.392 161.28H361.464V159.28H326.392V161.28ZM411.145 144.024L410.383 144.672L410.392 144.682L410.402 144.693L411.145 144.024ZM402.953 139.544L402.64 140.494L402.649 140.497L402.953 139.544ZM392.457 136.088L392.77 135.138L392.767 135.137L392.457 136.088ZM380.297 93.72L379.577 93.0261L379.577 93.0264L380.297 93.72ZM413.321 88.088L413.088 89.0606L413.098 89.063L413.109 89.0652L413.321 88.088ZM425.865 92.312L426.806 92.6501L427.121 91.774L426.27 91.3975L425.865 92.312ZM421.129 105.496L420.761 106.426L421.721 106.806L422.07 105.834L421.129 105.496ZM410.633 102.04L410.37 103.005L410.387 103.009L410.404 103.013L410.633 102.04ZM392.585 103.064L393.109 103.916L393.118 103.91L392.585 103.064ZM391.561 117.4L390.802 118.051L390.818 118.07L390.836 118.089L391.561 117.4ZM399.497 121.752L399.81 120.802L399.807 120.801L399.497 121.752ZM409.993 125.208L410.313 124.261L410.306 124.258L409.993 125.208ZM424.201 134.552L423.409 135.163L423.416 135.172L423.423 135.181L424.201 134.552ZM421.769 169.24L422.463 169.96L422.47 169.953L421.769 169.24ZM386.057 174.872L385.828 175.845L385.839 175.848L385.85 175.85L386.057 174.872ZM371.721 169.752L370.78 169.414L370.47 170.278L371.304 170.661L371.721 169.752ZM376.457 156.568L376.851 155.649L375.875 155.231L375.516 156.23L376.457 156.568ZM388.617 160.92L388.369 161.889L388.383 161.892L388.397 161.896L388.617 160.92ZM398.601 163.072C403.645 163.072 407.609 162.142 410.333 160.123C413.112 158.063 414.449 154.982 414.449 151.064H412.449C412.449 154.485 411.311 156.908 409.141 158.517C406.915 160.167 403.456 161.072 398.601 161.072V163.072ZM414.449 151.064C414.449 147.907 413.634 145.295 411.888 143.355L410.402 144.693C411.728 146.166 412.449 148.248 412.449 151.064H414.449ZM411.907 143.376C410.269 141.449 407.313 139.886 403.257 138.591L402.649 140.497C406.614 141.762 409.12 143.185 410.383 144.672L411.907 143.376ZM403.266 138.594L392.77 135.138L392.144 137.038L402.64 140.494L403.266 138.594ZM392.767 135.137C386.635 133.135 382.124 130.151 379.141 126.234C376.162 122.323 374.641 117.396 374.641 111.384H372.641C372.641 117.745 374.256 123.122 377.549 127.446C380.838 131.764 385.735 134.945 392.147 137.039L392.767 135.137ZM374.641 111.384C374.641 104.441 376.782 98.8123 381.017 94.4136L379.577 93.0264C374.938 97.8437 372.641 103.991 372.641 111.384H374.641ZM381.017 94.4139C385.278 89.9919 392.004 87.68 401.417 87.68V85.68C391.715 85.68 384.361 88.0615 379.577 93.0261L381.017 94.4139ZM401.417 87.68C405.349 87.68 409.239 88.14 413.088 89.0606L413.554 87.1154C409.553 86.1586 405.506 85.68 401.417 85.68V87.68ZM413.109 89.0652C416.956 89.9016 421.073 91.2858 425.46 93.2265L426.27 91.3975C421.783 89.4129 417.537 87.9811 413.533 87.1108L413.109 89.0652ZM424.924 91.9739L420.188 105.158L422.07 105.834L426.806 92.6501L424.924 91.9739ZM421.497 104.566C417.375 102.935 413.827 101.764 410.862 101.067L410.404 103.013C413.241 103.681 416.691 104.815 420.761 106.426L421.497 104.566ZM410.896 101.075C407.992 100.283 405.002 99.888 401.929 99.888V101.888C404.829 101.888 407.642 102.261 410.37 103.005L410.896 101.075ZM401.929 99.888C397.894 99.888 394.571 100.632 392.052 102.218L393.118 103.91C395.207 102.595 398.113 101.888 401.929 101.888V99.888ZM392.061 102.212C389.434 103.829 388.257 106.756 388.257 110.616H390.257C390.257 107.138 391.299 105.03 393.109 103.916L392.061 102.212ZM388.257 110.616C388.257 113.546 389.086 116.05 390.802 118.051L392.32 116.749C390.964 115.166 390.257 113.148 390.257 110.616H388.257ZM390.836 118.089C392.623 119.97 395.45 121.486 399.187 122.703L399.807 120.801C396.206 119.629 393.742 118.244 392.286 116.711L390.836 118.089ZM399.184 122.702L409.68 126.158L410.306 124.258L399.81 120.802L399.184 122.702ZM409.673 126.155C415.854 128.244 420.403 131.262 423.409 135.163L424.993 133.941C421.685 129.65 416.761 126.439 410.313 124.261L409.673 126.155ZM423.423 135.181C426.485 138.967 428.065 144.057 428.065 150.552H430.065C430.065 143.735 428.403 138.158 424.979 133.923L423.423 135.181ZM428.065 150.552C428.065 158.001 425.716 163.961 421.068 168.527L422.47 169.953C427.55 164.962 430.065 158.463 430.065 150.552H428.065ZM421.075 168.52C416.476 172.957 409.145 175.28 398.857 175.28V177.28C409.391 177.28 417.334 174.909 422.463 169.96L421.075 168.52ZM398.857 175.28C394.838 175.28 390.64 174.819 386.264 173.894L385.85 175.85C390.348 176.802 394.684 177.28 398.857 177.28V175.28ZM386.286 173.899C382.014 172.893 377.299 171.212 372.138 168.843L371.304 170.661C376.554 173.071 381.396 174.803 385.828 175.845L386.286 173.899ZM372.662 170.09L377.398 156.906L375.516 156.23L370.78 169.414L372.662 170.09ZM376.063 157.487C380.868 159.546 384.973 161.018 388.369 161.889L388.865 159.951C385.605 159.115 381.604 157.686 376.851 155.649L376.063 157.487ZM388.397 161.896C391.877 162.679 395.279 163.072 398.601 163.072V161.072C395.438 161.072 392.183 160.697 388.837 159.944L388.397 161.896ZM435.539 102.68H434.539V103.68H435.539V102.68ZM435.539 87.96V86.96H434.539V87.96H435.539ZM499.539 87.96H500.539V86.96H499.539V87.96ZM499.539 102.68V103.68H500.539V102.68H499.539ZM475.219 102.68V101.68H474.219V102.68H475.219ZM475.219 175V176H476.219V175H475.219ZM459.859 175H458.859V176H459.859V175ZM459.859 102.68H460.859V101.68H459.859V102.68ZM436.539 102.68V87.96H434.539V102.68H436.539ZM435.539 88.96H499.539V86.96H435.539V88.96ZM498.539 87.96V102.68H500.539V87.96H498.539ZM499.539 101.68H475.219V103.68H499.539V101.68ZM474.219 102.68V175H476.219V102.68H474.219ZM475.219 174H459.859V176H475.219V174ZM460.859 175V102.68H458.859V175H460.859ZM459.859 101.68H435.539V103.68H459.859V101.68ZM566.53 166.808L567.281 167.468L567.286 167.463L566.53 166.808ZM517.762 166.808L517.001 167.457L517.006 167.463L517.011 167.468L517.762 166.808ZM517.762 96.152L517.011 95.492L517.006 95.4978L517.762 96.152ZM566.53 96.152L567.281 95.4921L567.281 95.4921L566.53 96.152ZM555.01 106.52L554.215 107.126L554.222 107.135L555.01 106.52ZM529.41 106.52L530.198 107.135L530.205 107.126L529.41 106.52ZM529.41 156.44L530.205 155.834L530.205 155.834L529.41 156.44ZM555.01 156.44L554.215 155.834L554.215 155.834L555.01 156.44ZM573.85 122.264V140.568H575.85V122.264H573.85ZM573.85 140.568C573.85 151.497 571.12 159.985 565.774 166.153L567.286 167.463C573.033 160.831 575.85 151.826 575.85 140.568H573.85ZM565.779 166.148C560.471 172.191 552.672 175.28 542.21 175.28V177.28C553.081 177.28 561.496 174.054 567.281 167.468L565.779 166.148ZM542.21 175.28C531.66 175.28 523.82 172.189 518.513 166.148L517.011 167.468C522.797 174.056 531.256 177.28 542.21 177.28V175.28ZM518.523 166.159C513.259 159.991 510.57 151.5 510.57 140.568H508.57C508.57 151.822 511.342 160.825 517.001 167.457L518.523 166.159ZM510.57 140.568V122.264H508.57V140.568H510.57ZM510.57 122.264C510.57 111.331 513.26 102.887 518.518 96.8061L517.006 95.4978C511.342 102.047 508.57 111.01 508.57 122.264H510.57ZM518.513 96.8119C523.82 90.7706 531.66 87.68 542.21 87.68V85.68C531.256 85.68 522.797 88.9041 517.011 95.4921L518.513 96.8119ZM542.21 87.68C552.672 87.68 560.471 90.7689 565.779 96.8119L567.281 95.4921C561.496 88.9058 553.081 85.68 542.21 85.68V87.68ZM565.779 96.8119C571.12 102.892 573.85 111.335 573.85 122.264H575.85C575.85 111.007 573.034 102.041 567.281 95.4921L565.779 96.8119ZM560.106 122.264C560.106 115.164 558.725 109.655 555.798 105.905L554.222 107.135C556.756 110.382 558.106 115.369 558.106 122.264H560.106ZM555.805 105.914C552.833 102.013 548.226 100.144 542.21 100.144V102.144C547.799 102.144 551.726 103.859 554.215 107.126L555.805 105.914ZM542.21 100.144C536.194 100.144 531.587 102.013 528.615 105.914L530.205 107.126C532.694 103.859 536.621 102.144 542.21 102.144V100.144ZM528.622 105.905C525.695 109.655 524.314 115.164 524.314 122.264H526.314C526.314 115.369 527.664 110.382 530.198 107.135L528.622 105.905ZM524.314 122.264V140.568H526.314V122.264H524.314ZM524.314 140.568C524.314 147.671 525.696 153.215 528.615 157.046L530.205 155.834C527.663 152.497 526.314 147.46 526.314 140.568H524.314ZM528.615 157.046C531.587 160.947 536.194 162.816 542.21 162.816V160.816C536.621 160.816 532.694 159.101 530.205 155.834L528.615 157.046ZM542.21 162.816C548.226 162.816 552.833 160.947 555.805 157.046L554.215 155.834C551.726 159.101 547.799 160.816 542.21 160.816V162.816ZM555.805 157.046C558.724 153.215 560.106 147.671 560.106 140.568H558.106C558.106 147.46 556.757 152.497 554.215 155.834L555.805 157.046ZM560.106 140.568V122.264H558.106V140.568H560.106ZM610.517 143V142H609.517V143H610.517ZM610.517 175V176H611.517V175H610.517ZM595.157 175H594.157V176H595.157V175ZM595.157 87.96V86.96H594.157V87.96H595.157ZM644.437 94.744L643.743 95.4641L643.75 95.4705L643.757 95.4768L644.437 94.744ZM648.405 131.224L649.274 131.718L649.274 131.718L648.405 131.224ZM639.189 139.8L638.749 138.902L637.781 139.375L638.326 140.305L639.189 139.8ZM657.109 175V176H658.627L658.028 174.605L657.109 175ZM639.573 175L638.645 175.371L638.896 176H639.573V175ZM624.341 143L625.216 142.517L624.931 142H624.341V143ZM610.517 102.04V101.04H609.517V102.04H610.517ZM610.517 128.92H609.517V129.92H610.517V128.92ZM632.789 126.104L633.48 126.827L633.481 126.826L632.789 126.104ZM632.789 104.984L632.082 105.691L632.097 105.706L632.113 105.721L632.789 104.984ZM609.517 143V175H611.517V143H609.517ZM610.517 174H595.157V176H610.517V174ZM596.157 175V87.96H594.157V175H596.157ZM595.157 88.96H624.213V86.96H595.157V88.96ZM624.213 88.96C632.836 88.96 639.293 91.1762 643.743 95.4641L645.131 94.0239C640.194 89.2665 633.169 86.96 624.213 86.96V88.96ZM643.757 95.4768C648.3 99.6956 650.605 105.387 650.605 112.664H652.605C652.605 104.923 650.131 98.6671 645.117 94.0112L643.757 95.4768ZM650.605 112.664V118.168H652.605V112.664H650.605ZM650.605 118.168C650.605 122.97 649.571 127.147 647.536 130.73L649.274 131.718C651.505 127.792 652.605 123.265 652.605 118.168H650.605ZM647.536 130.73C645.505 134.304 642.586 137.024 638.749 138.902L639.629 140.698C643.813 138.65 647.038 135.654 649.274 131.718L647.536 130.73ZM638.326 140.305C645.305 152.22 651.259 163.916 656.19 175.395L658.028 174.605C653.061 163.044 647.068 151.273 640.052 139.295L638.326 140.305ZM657.109 174H639.573V176H657.109V174ZM640.501 174.629C636.219 163.921 631.123 153.217 625.216 142.517L623.466 143.483C629.335 154.116 634.394 164.745 638.645 175.371L640.501 174.629ZM624.341 142H610.517V144H624.341V142ZM624.213 101.04H610.517V103.04H624.213V101.04ZM609.517 102.04V128.92H611.517V102.04H609.517ZM610.517 129.92H624.213V127.92H610.517V129.92ZM624.213 129.92C628.125 129.92 631.27 128.941 633.48 126.827L632.098 125.381C630.383 127.022 627.81 127.92 624.213 127.92V129.92ZM633.481 126.826C635.76 124.642 636.861 121.717 636.861 118.168H634.861C634.861 121.275 633.914 123.641 632.097 125.382L633.481 126.826ZM636.861 118.168V112.664H634.861V118.168H636.861ZM636.861 112.664C636.861 109.192 635.754 106.346 633.465 104.247L632.113 105.721C633.92 107.377 634.861 109.65 634.861 112.664H636.861ZM633.496 104.277C631.287 102.068 628.137 101.04 624.213 101.04V103.04C627.799 103.04 630.365 103.974 632.082 105.691L633.496 104.277ZM723.589 160.28H724.589V159.28H723.589V160.28ZM723.589 175V176H724.589V175H723.589ZM673.157 175H672.157V176H673.157V175ZM673.157 87.96V86.96H672.157V87.96H673.157ZM722.309 87.96H723.309V86.96H722.309V87.96ZM722.309 102.68V103.68H723.309V102.68H722.309ZM688.517 102.68V101.68H687.517V102.68H688.517ZM688.517 123.544H687.517V124.544H688.517V123.544ZM718.469 123.544H719.469V122.544H718.469V123.544ZM718.469 138.264V139.264H719.469V138.264H718.469ZM688.517 138.264V137.264H687.517V138.264H688.517ZM688.517 160.28H687.517V161.28H688.517V160.28ZM722.589 160.28V175H724.589V160.28H722.589ZM723.589 174H673.157V176H723.589V174ZM674.157 175V87.96H672.157V175H674.157ZM673.157 88.96H722.309V86.96H673.157V88.96ZM721.309 87.96V102.68H723.309V87.96H721.309ZM722.309 101.68H688.517V103.68H722.309V101.68ZM687.517 102.68V123.544H689.517V102.68H687.517ZM688.517 124.544H718.469V122.544H688.517V124.544ZM717.469 123.544V138.264H719.469V123.544H717.469ZM718.469 137.264H688.517V139.264H718.469V137.264ZM687.517 138.264V160.28H689.517V138.264H687.517ZM688.517 161.28H723.589V159.28H688.517V161.28Z" fill="black"/>
<mask id="path-5-inside-2_101_7" fill="white">
<path fill-rule="evenodd" clip-rule="evenodd" d="M210 0H227V21H210C187.909 21 170 38.9086 170 61V77H149V61C149 27.3106 176.311 0 210 0ZM149 167V184C149 217.689 176.311 245 210 245H227V224H210C187.909 224 170 206.091 170 184V167H149ZM773 167V184C773 206.091 755.091 224 733 224H717V245H733C766.689 245 794 217.689 794 184V167H773ZM794 77V61C794 27.3106 766.689 0 733 0H717V21H733C755.091 21 773 38.9086 773 61V77H794Z"/>
</mask>
<path fill-rule="evenodd" clip-rule="evenodd" d="M210 0H227V21H210C187.909 21 170 38.9086 170 61V77H149V61C149 27.3106 176.311 0 210 0ZM149 167V184C149 217.689 176.311 245 210 245H227V224H210C187.909 224 170 206.091 170 184V167H149ZM773 167V184C773 206.091 755.091 224 733 224H717V245H733C766.689 245 794 217.689 794 184V167H773ZM794 77V61C794 27.3106 766.689 0 733 0H717V21H733C755.091 21 773 38.9086 773 61V77H794Z" fill="#4A95BF"/>
<path d="M227 0H228V-1H227V0ZM227 21V22H228V21H227ZM170 77V78H171V77H170ZM149 77H148V78H149V77ZM149 167V166H148V167H149ZM227 245V246H228V245H227ZM227 224H228V223H227V224ZM170 167H171V166H170V167ZM773 167V166H772V167H773ZM717 224V223H716V224H717ZM717 245H716V246H717V245ZM794 167H795V166H794V167ZM794 77V78H795V77H794ZM717 0V-1H716V0H717ZM717 21H716V22H717V21ZM773 77H772V78H773V77ZM227 -1H210V1H227V-1ZM228 21V0H226V21H228ZM210 22H227V20H210V22ZM171 61C171 39.4609 188.461 22 210 22V20C187.356 20 169 38.3563 169 61H171ZM171 77V61H169V77H171ZM149 78H170V76H149V78ZM148 61V77H150V61H148ZM210 -1C175.758 -1 148 26.7583 148 61H150C150 27.8629 176.863 1 210 1V-1ZM148 167V184H150V167H148ZM148 184C148 218.242 175.758 246 210 246V244C176.863 244 150 217.137 150 184H148ZM210 246H227V244H210V246ZM228 245V224H226V245H228ZM227 223H210V225H227V223ZM210 223C188.461 223 171 205.539 171 184H169C169 206.644 187.356 225 210 225V223ZM171 184V167H169V184H171ZM170 166H149V168H170V166ZM774 184V167H772V184H774ZM733 225C755.644 225 774 206.644 774 184H772C772 205.539 754.539 223 733 223V225ZM717 225H733V223H717V225ZM718 245V224H716V245H718ZM733 244H717V246H733V244ZM793 184C793 217.137 766.137 244 733 244V246C767.242 246 795 218.242 795 184H793ZM793 167V184H795V167H793ZM794 166H773V168H794V166ZM793 61V77H795V61H793ZM733 1C766.137 1 793 27.8629 793 61H795C795 26.7583 767.242 -1 733 -1V1ZM717 1H733V-1H717V1ZM718 21V0H716V21H718ZM733 20H717V22H733V20ZM774 61C774 38.3563 755.644 20 733 20V22C754.539 22 772 39.4609 772 61H774ZM774 77V61H772V77H774ZM773 78H794V76H773V78Z" fill="black" mask="url(#path-5-inside-2_101_7)"/>
<path d="M244.392 139V171H229.032V83.96H258.088C266.877 83.96 273.619 86.2213 278.312 90.744C283.091 95.1813 285.48 101.155 285.48 108.664V114.168C285.48 119.117 284.413 123.469 282.28 127.224C280.147 130.979 277.075 133.837 273.064 135.8C280.061 147.747 286.035 159.48 290.984 171H273.448C269.181 160.333 264.104 149.667 258.216 139H244.392ZM258.088 98.04H244.392V124.92H258.088C261.843 124.92 264.701 123.981 266.664 122.104C268.712 120.141 269.736 117.496 269.736 114.168V108.664C269.736 105.421 268.712 102.861 266.664 100.984C264.701 99.0213 261.843 98.04 258.088 98.04ZM357.464 156.28V171H307.032V83.96H356.184V98.68H322.392V119.544H352.344V134.264H322.392V156.28H357.464ZM394.601 158.072C404.5 158.072 409.449 154.403 409.449 147.064C409.449 144.077 408.681 141.731 407.145 140.024C405.694 138.317 402.964 136.824 398.953 135.544L388.457 132.088C375.913 127.992 369.641 119.757 369.641 107.384C369.641 100.216 371.86 94.328 376.297 89.72C380.82 85.0267 387.86 82.68 397.417 82.68C401.428 82.68 405.396 83.1493 409.321 84.088C413.246 84.9413 417.428 86.3493 421.865 88.312L417.129 101.496C413.033 99.8747 409.534 98.7227 406.633 98.04C403.817 97.272 400.916 96.888 397.929 96.888C394.004 96.888 390.889 97.6133 388.585 99.064C386.366 100.429 385.257 102.947 385.257 106.616C385.257 109.347 386.025 111.608 387.561 113.4C389.182 115.107 391.828 116.557 395.497 117.752L405.993 121.208C412.308 123.341 417.044 126.456 420.201 130.552C423.444 134.563 425.065 139.896 425.065 146.552C425.065 154.232 422.633 160.461 417.769 165.24C412.905 169.933 405.268 172.28 394.857 172.28C390.761 172.28 386.494 171.811 382.057 170.872C377.705 169.848 372.926 168.141 367.721 165.752L372.457 152.568C377.236 154.616 381.289 156.067 384.617 156.92C388.03 157.688 391.358 158.072 394.601 158.072ZM431.539 98.68V83.96H495.539V98.68H471.219V171H455.859V98.68H431.539ZM570.85 118.264V136.568C570.85 147.661 568.077 156.408 562.53 162.808C556.983 169.123 548.877 172.28 538.21 172.28C527.458 172.28 519.309 169.123 513.762 162.808C508.301 156.408 505.57 147.661 505.57 136.568V118.264C505.57 107.171 508.301 98.4667 513.762 92.152C519.309 85.8373 527.458 82.68 538.21 82.68C548.877 82.68 556.983 85.8373 562.53 92.152C568.077 98.4667 570.85 107.171 570.85 118.264ZM555.106 118.264C555.106 111.267 553.741 106.019 551.01 102.52C548.279 98.936 544.013 97.144 538.21 97.144C532.407 97.144 528.141 98.936 525.41 102.52C522.679 106.019 521.314 111.267 521.314 118.264V136.568C521.314 143.565 522.679 148.856 525.41 152.44C528.141 156.024 532.407 157.816 538.21 157.816C544.013 157.816 548.279 156.024 551.01 152.44C553.741 148.856 555.106 143.565 555.106 136.568V118.264ZM606.517 139V171H591.157V83.96H620.213C629.002 83.96 635.744 86.2213 640.437 90.744C645.216 95.1813 647.605 101.155 647.605 108.664V114.168C647.605 119.117 646.538 123.469 644.405 127.224C642.272 130.979 639.2 133.837 635.189 135.8C642.186 147.747 648.16 159.48 653.109 171H635.573C631.306 160.333 626.229 149.667 620.341 139H606.517ZM620.213 98.04H606.517V124.92H620.213C623.968 124.92 626.826 123.981 628.789 122.104C630.837 120.141 631.861 117.496 631.861 114.168V108.664C631.861 105.421 630.837 102.861 628.789 100.984C626.826 99.0213 623.968 98.04 620.213 98.04ZM719.589 156.28V171H669.157V83.96H718.309V98.68H684.517V119.544H714.469V134.264H684.517V156.28H719.589Z" fill="#4A95BF"/>
<path d="M244.392 139V138H243.392V139H244.392ZM244.392 171V172H245.392V171H244.392ZM229.032 171H228.032V172H229.032V171ZM229.032 83.96V82.96H228.032V83.96H229.032ZM278.312 90.744L277.618 91.4641L277.625 91.4705L277.632 91.4768L278.312 90.744ZM282.28 127.224L283.149 127.718L283.149 127.718L282.28 127.224ZM273.064 135.8L272.624 134.902L271.656 135.375L272.201 136.305L273.064 135.8ZM290.984 171V172H292.502L291.903 170.605L290.984 171ZM273.448 171L272.52 171.371L272.771 172H273.448V171ZM258.216 139L259.091 138.517L258.806 138H258.216V139ZM244.392 98.04V97.04H243.392V98.04H244.392ZM244.392 124.92H243.392V125.92H244.392V124.92ZM266.664 122.104L267.355 122.827L267.356 122.826L266.664 122.104ZM266.664 100.984L265.957 101.691L265.972 101.706L265.988 101.721L266.664 100.984ZM243.392 139V171H245.392V139H243.392ZM244.392 170H229.032V172H244.392V170ZM230.032 171V83.96H228.032V171H230.032ZM229.032 84.96H258.088V82.96H229.032V84.96ZM258.088 84.96C266.711 84.96 273.168 87.1762 277.618 91.4641L279.006 90.0239C274.069 85.2665 267.044 82.96 258.088 82.96V84.96ZM277.632 91.4768C282.175 95.6956 284.48 101.387 284.48 108.664H286.48C286.48 100.923 284.006 94.6671 278.992 90.0112L277.632 91.4768ZM284.48 108.664V114.168H286.48V108.664H284.48ZM284.48 114.168C284.48 118.97 283.446 123.147 281.411 126.73L283.149 127.718C285.38 123.792 286.48 119.265 286.48 114.168H284.48ZM281.411 126.73C279.38 130.304 276.461 133.024 272.624 134.902L273.504 136.698C277.688 134.65 280.913 131.654 283.149 127.718L281.411 126.73ZM272.201 136.305C279.18 148.22 285.134 159.916 290.065 171.395L291.903 170.605C286.936 159.044 280.943 147.273 273.927 135.295L272.201 136.305ZM290.984 170H273.448V172H290.984V170ZM274.376 170.629C270.094 159.921 264.998 149.217 259.091 138.517L257.341 139.483C263.21 150.116 268.269 160.745 272.52 171.371L274.376 170.629ZM258.216 138H244.392V140H258.216V138ZM258.088 97.04H244.392V99.04H258.088V97.04ZM243.392 98.04V124.92H245.392V98.04H243.392ZM244.392 125.92H258.088V123.92H244.392V125.92ZM258.088 125.92C262 125.92 265.145 124.941 267.355 122.827L265.973 121.381C264.258 123.022 261.685 123.92 258.088 123.92V125.92ZM267.356 122.826C269.635 120.642 270.736 117.717 270.736 114.168H268.736C268.736 117.275 267.789 119.641 265.972 121.382L267.356 122.826ZM270.736 114.168V108.664H268.736V114.168H270.736ZM270.736 108.664C270.736 105.192 269.629 102.346 267.34 100.247L265.988 101.721C267.795 103.377 268.736 105.65 268.736 108.664H270.736ZM267.371 100.277C265.162 98.0682 262.012 97.04 258.088 97.04V99.04C261.674 99.04 264.24 99.9745 265.957 101.691L267.371 100.277ZM357.464 156.28H358.464V155.28H357.464V156.28ZM357.464 171V172H358.464V171H357.464ZM307.032 171H306.032V172H307.032V171ZM307.032 83.96V82.96H306.032V83.96H307.032ZM356.184 83.96H357.184V82.96H356.184V83.96ZM356.184 98.68V99.68H357.184V98.68H356.184ZM322.392 98.68V97.68H321.392V98.68H322.392ZM322.392 119.544H321.392V120.544H322.392V119.544ZM352.344 119.544H353.344V118.544H352.344V119.544ZM352.344 134.264V135.264H353.344V134.264H352.344ZM322.392 134.264V133.264H321.392V134.264H322.392ZM322.392 156.28H321.392V157.28H322.392V156.28ZM356.464 156.28V171H358.464V156.28H356.464ZM357.464 170H307.032V172H357.464V170ZM308.032 171V83.96H306.032V171H308.032ZM307.032 84.96H356.184V82.96H307.032V84.96ZM355.184 83.96V98.68H357.184V83.96H355.184ZM356.184 97.68H322.392V99.68H356.184V97.68ZM321.392 98.68V119.544H323.392V98.68H321.392ZM322.392 120.544H352.344V118.544H322.392V120.544ZM351.344 119.544V134.264H353.344V119.544H351.344ZM352.344 133.264H322.392V135.264H352.344V133.264ZM321.392 134.264V156.28H323.392V134.264H321.392ZM322.392 157.28H357.464V155.28H322.392V157.28ZM407.145 140.024L406.383 140.672L406.392 140.682L406.402 140.693L407.145 140.024ZM398.953 135.544L398.64 136.494L398.649 136.497L398.953 135.544ZM388.457 132.088L388.77 131.138L388.767 131.137L388.457 132.088ZM376.297 89.72L375.577 89.0261L375.577 89.0264L376.297 89.72ZM409.321 84.088L409.088 85.0606L409.098 85.063L409.109 85.0652L409.321 84.088ZM421.865 88.312L422.806 88.6501L423.121 87.774L422.27 87.3975L421.865 88.312ZM417.129 101.496L416.761 102.426L417.721 102.806L418.07 101.834L417.129 101.496ZM406.633 98.04L406.37 99.0048L406.387 99.0094L406.404 99.0134L406.633 98.04ZM388.585 99.064L389.109 99.9157L389.118 99.9102L388.585 99.064ZM387.561 113.4L386.802 114.051L386.818 114.07L386.836 114.089L387.561 113.4ZM395.497 117.752L395.81 116.802L395.807 116.801L395.497 117.752ZM405.993 121.208L406.313 120.261L406.306 120.258L405.993 121.208ZM420.201 130.552L419.409 131.163L419.416 131.172L419.423 131.181L420.201 130.552ZM417.769 165.24L418.463 165.96L418.47 165.953L417.769 165.24ZM382.057 170.872L381.828 171.845L381.839 171.848L381.85 171.85L382.057 170.872ZM367.721 165.752L366.78 165.414L366.47 166.278L367.304 166.661L367.721 165.752ZM372.457 152.568L372.851 151.649L371.875 151.231L371.516 152.23L372.457 152.568ZM384.617 156.92L384.369 157.889L384.383 157.892L384.397 157.896L384.617 156.92ZM394.601 159.072C399.645 159.072 403.609 158.142 406.333 156.123C409.112 154.063 410.449 150.982 410.449 147.064H408.449C408.449 150.485 407.311 152.908 405.141 154.517C402.915 156.167 399.456 157.072 394.601 157.072V159.072ZM410.449 147.064C410.449 143.907 409.634 141.295 407.888 139.355L406.402 140.693C407.728 142.166 408.449 144.248 408.449 147.064H410.449ZM407.907 139.376C406.269 137.449 403.313 135.886 399.257 134.591L398.649 136.497C402.614 137.762 405.12 139.185 406.383 140.672L407.907 139.376ZM399.266 134.594L388.77 131.138L388.144 133.038L398.64 136.494L399.266 134.594ZM388.767 131.137C382.635 129.135 378.124 126.151 375.141 122.234C372.162 118.323 370.641 113.396 370.641 107.384H368.641C368.641 113.745 370.256 119.122 373.549 123.446C376.838 127.764 381.735 130.945 388.147 133.039L388.767 131.137ZM370.641 107.384C370.641 100.441 372.782 94.8123 377.017 90.4136L375.577 89.0264C370.938 93.8437 368.641 99.9912 368.641 107.384H370.641ZM377.017 90.4139C381.278 85.9919 388.004 83.68 397.417 83.68V81.68C387.715 81.68 380.361 84.0615 375.577 89.0261L377.017 90.4139ZM397.417 83.68C401.349 83.68 405.239 84.14 409.088 85.0606L409.554 83.1154C405.553 82.1586 401.506 81.68 397.417 81.68V83.68ZM409.109 85.0652C412.956 85.9016 417.073 87.2858 421.46 89.2265L422.27 87.3975C417.783 85.4129 413.537 83.9811 409.533 83.1108L409.109 85.0652ZM420.924 87.9739L416.188 101.158L418.07 101.834L422.806 88.6501L420.924 87.9739ZM417.497 100.566C413.375 98.9346 409.827 97.7643 406.862 97.0666L406.404 99.0134C409.241 99.681 412.691 100.815 416.761 102.426L417.497 100.566ZM406.896 97.0752C403.992 96.2833 401.002 95.888 397.929 95.888V97.888C400.829 97.888 403.642 98.2607 406.37 99.0048L406.896 97.0752ZM397.929 95.888C393.894 95.888 390.571 96.6316 388.052 98.2178L389.118 99.9102C391.207 98.5951 394.113 97.888 397.929 97.888V95.888ZM388.061 98.2123C385.434 99.8288 384.257 102.756 384.257 106.616H386.257C386.257 103.138 387.299 101.03 389.109 99.9157L388.061 98.2123ZM384.257 106.616C384.257 109.546 385.086 112.05 386.802 114.051L388.32 112.749C386.964 111.166 386.257 109.148 386.257 106.616H384.257ZM386.836 114.089C388.623 115.97 391.45 117.486 395.187 118.703L395.807 116.801C392.206 115.629 389.742 114.244 388.286 112.711L386.836 114.089ZM395.184 118.702L405.68 122.158L406.306 120.258L395.81 116.802L395.184 118.702ZM405.673 122.155C411.854 124.244 416.403 127.262 419.409 131.163L420.993 129.941C417.685 125.65 412.761 122.439 406.313 120.261L405.673 122.155ZM419.423 131.181C422.485 134.967 424.065 140.057 424.065 146.552H426.065C426.065 139.735 424.403 134.158 420.979 129.923L419.423 131.181ZM424.065 146.552C424.065 154.001 421.716 159.961 417.068 164.527L418.47 165.953C423.55 160.962 426.065 154.463 426.065 146.552H424.065ZM417.075 164.52C412.476 168.957 405.145 171.28 394.857 171.28V173.28C405.391 173.28 413.334 170.909 418.463 165.96L417.075 164.52ZM394.857 171.28C390.838 171.28 386.64 170.819 382.264 169.894L381.85 171.85C386.348 172.802 390.684 173.28 394.857 173.28V171.28ZM382.286 169.899C378.014 168.893 373.299 167.212 368.138 164.843L367.304 166.661C372.554 169.071 377.396 170.803 381.828 171.845L382.286 169.899ZM368.662 166.09L373.398 152.906L371.516 152.23L366.78 165.414L368.662 166.09ZM372.063 153.487C376.868 155.546 380.973 157.018 384.369 157.889L384.865 155.951C381.605 155.115 377.604 153.686 372.851 151.649L372.063 153.487ZM384.397 157.896C387.877 158.679 391.279 159.072 394.601 159.072V157.072C391.438 157.072 388.183 156.697 384.837 155.944L384.397 157.896ZM431.539 98.68H430.539V99.68H431.539V98.68ZM431.539 83.96V82.96H430.539V83.96H431.539ZM495.539 83.96H496.539V82.96H495.539V83.96ZM495.539 98.68V99.68H496.539V98.68H495.539ZM471.219 98.68V97.68H470.219V98.68H471.219ZM471.219 171V172H472.219V171H471.219ZM455.859 171H454.859V172H455.859V171ZM455.859 98.68H456.859V97.68H455.859V98.68ZM432.539 98.68V83.96H430.539V98.68H432.539ZM431.539 84.96H495.539V82.96H431.539V84.96ZM494.539 83.96V98.68H496.539V83.96H494.539ZM495.539 97.68H471.219V99.68H495.539V97.68ZM470.219 98.68V171H472.219V98.68H470.219ZM471.219 170H455.859V172H471.219V170ZM456.859 171V98.68H454.859V171H456.859ZM455.859 97.68H431.539V99.68H455.859V97.68ZM562.53 162.808L563.281 163.468L563.286 163.463L562.53 162.808ZM513.762 162.808L513.001 163.457L513.006 163.463L513.011 163.468L513.762 162.808ZM513.762 92.152L513.011 91.492L513.006 91.4978L513.762 92.152ZM562.53 92.152L563.281 91.4921L563.281 91.4921L562.53 92.152ZM551.01 102.52L550.215 103.126L550.222 103.135L551.01 102.52ZM525.41 102.52L526.198 103.135L526.205 103.126L525.41 102.52ZM525.41 152.44L526.205 151.834L526.205 151.834L525.41 152.44ZM551.01 152.44L550.215 151.834L550.215 151.834L551.01 152.44ZM569.85 118.264V136.568H571.85V118.264H569.85ZM569.85 136.568C569.85 147.497 567.12 155.985 561.774 162.153L563.286 163.463C569.033 156.831 571.85 147.826 571.85 136.568H569.85ZM561.779 162.148C556.471 168.191 548.672 171.28 538.21 171.28V173.28C549.081 173.28 557.496 170.054 563.281 163.468L561.779 162.148ZM538.21 171.28C527.66 171.28 519.82 168.189 514.513 162.148L513.011 163.468C518.797 170.056 527.256 173.28 538.21 173.28V171.28ZM514.523 162.159C509.259 155.991 506.57 147.5 506.57 136.568H504.57C504.57 147.822 507.342 156.825 513.001 163.457L514.523 162.159ZM506.57 136.568V118.264H504.57V136.568H506.57ZM506.57 118.264C506.57 107.331 509.26 98.8866 514.518 92.8061L513.006 91.4978C507.342 98.0467 504.57 107.01 504.57 118.264H506.57ZM514.513 92.8119C519.82 86.7706 527.66 83.68 538.21 83.68V81.68C527.256 81.68 518.797 84.9041 513.011 91.4921L514.513 92.8119ZM538.21 83.68C548.672 83.68 556.471 86.7689 561.779 92.8119L563.281 91.4921C557.496 84.9058 549.081 81.68 538.21 81.68V83.68ZM561.779 92.8119C567.12 98.8924 569.85 107.335 569.85 118.264H571.85C571.85 107.007 569.034 98.0409 563.281 91.4921L561.779 92.8119ZM556.106 118.264C556.106 111.164 554.725 105.655 551.798 101.905L550.222 103.135C552.756 106.382 554.106 111.369 554.106 118.264H556.106ZM551.805 101.914C548.833 98.0127 544.226 96.144 538.21 96.144V98.144C543.799 98.144 547.726 99.8593 550.215 103.126L551.805 101.914ZM538.21 96.144C532.194 96.144 527.587 98.0127 524.615 101.914L526.205 103.126C528.694 99.8593 532.621 98.144 538.21 98.144V96.144ZM524.622 101.905C521.695 105.655 520.314 111.164 520.314 118.264H522.314C522.314 111.369 523.664 106.382 526.198 103.135L524.622 101.905ZM520.314 118.264V136.568H522.314V118.264H520.314ZM520.314 136.568C520.314 143.671 521.696 149.215 524.615 153.046L526.205 151.834C523.663 148.497 522.314 143.46 522.314 136.568H520.314ZM524.615 153.046C527.587 156.947 532.194 158.816 538.21 158.816V156.816C532.621 156.816 528.694 155.101 526.205 151.834L524.615 153.046ZM538.21 158.816C544.226 158.816 548.833 156.947 551.805 153.046L550.215 151.834C547.726 155.101 543.799 156.816 538.21 156.816V158.816ZM551.805 153.046C554.724 149.215 556.106 143.671 556.106 136.568H554.106C554.106 143.46 552.757 148.497 550.215 151.834L551.805 153.046ZM556.106 136.568V118.264H554.106V136.568H556.106ZM606.517 139V138H605.517V139H606.517ZM606.517 171V172H607.517V171H606.517ZM591.157 171H590.157V172H591.157V171ZM591.157 83.96V82.96H590.157V83.96H591.157ZM640.437 90.744L639.743 91.4641L639.75 91.4705L639.757 91.4768L640.437 90.744ZM644.405 127.224L645.274 127.718L645.274 127.718L644.405 127.224ZM635.189 135.8L634.749 134.902L633.781 135.375L634.326 136.305L635.189 135.8ZM653.109 171V172H654.627L654.028 170.605L653.109 171ZM635.573 171L634.645 171.371L634.896 172H635.573V171ZM620.341 139L621.216 138.517L620.931 138H620.341V139ZM606.517 98.04V97.04H605.517V98.04H606.517ZM606.517 124.92H605.517V125.92H606.517V124.92ZM628.789 122.104L629.48 122.827L629.481 122.826L628.789 122.104ZM628.789 100.984L628.082 101.691L628.097 101.706L628.113 101.721L628.789 100.984ZM605.517 139V171H607.517V139H605.517ZM606.517 170H591.157V172H606.517V170ZM592.157 171V83.96H590.157V171H592.157ZM591.157 84.96H620.213V82.96H591.157V84.96ZM620.213 84.96C628.836 84.96 635.293 87.1762 639.743 91.4641L641.131 90.0239C636.194 85.2665 629.169 82.96 620.213 82.96V84.96ZM639.757 91.4768C644.3 95.6956 646.605 101.387 646.605 108.664H648.605C648.605 100.923 646.131 94.6671 641.117 90.0112L639.757 91.4768ZM646.605 108.664V114.168H648.605V108.664H646.605ZM646.605 114.168C646.605 118.97 645.571 123.147 643.536 126.73L645.274 127.718C647.505 123.792 648.605 119.265 648.605 114.168H646.605ZM643.536 126.73C641.505 130.304 638.586 133.024 634.749 134.902L635.629 136.698C639.813 134.65 643.038 131.654 645.274 127.718L643.536 126.73ZM634.326 136.305C641.305 148.22 647.259 159.916 652.19 171.395L654.028 170.605C649.061 159.044 643.068 147.273 636.052 135.295L634.326 136.305ZM653.109 170H635.573V172H653.109V170ZM636.501 170.629C632.219 159.921 627.123 149.217 621.216 138.517L619.466 139.483C625.335 150.116 630.394 160.745 634.645 171.371L636.501 170.629ZM620.341 138H606.517V140H620.341V138ZM620.213 97.04H606.517V99.04H620.213V97.04ZM605.517 98.04V124.92H607.517V98.04H605.517ZM606.517 125.92H620.213V123.92H606.517V125.92ZM620.213 125.92C624.125 125.92 627.27 124.941 629.48 122.827L628.098 121.381C626.383 123.022 623.81 123.92 620.213 123.92V125.92ZM629.481 122.826C631.76 120.642 632.861 117.717 632.861 114.168H630.861C630.861 117.275 629.914 119.641 628.097 121.382L629.481 122.826ZM632.861 114.168V108.664H630.861V114.168H632.861ZM632.861 108.664C632.861 105.192 631.754 102.346 629.465 100.247L628.113 101.721C629.92 103.377 630.861 105.65 630.861 108.664H632.861ZM629.496 100.277C627.287 98.0682 624.137 97.04 620.213 97.04V99.04C623.799 99.04 626.365 99.9745 628.082 101.691L629.496 100.277ZM719.589 156.28H720.589V155.28H719.589V156.28ZM719.589 171V172H720.589V171H719.589ZM669.157 171H668.157V172H669.157V171ZM669.157 83.96V82.96H668.157V83.96H669.157ZM718.309 83.96H719.309V82.96H718.309V83.96ZM718.309 98.68V99.68H719.309V98.68H718.309ZM684.517 98.68V97.68H683.517V98.68H684.517ZM684.517 119.544H683.517V120.544H684.517V119.544ZM714.469 119.544H715.469V118.544H714.469V119.544ZM714.469 134.264V135.264H715.469V134.264H714.469ZM684.517 134.264V133.264H683.517V134.264H684.517ZM684.517 156.28H683.517V157.28H684.517V156.28ZM718.589 156.28V171H720.589V156.28H718.589ZM719.589 170H669.157V172H719.589V170ZM670.157 171V83.96H668.157V171H670.157ZM669.157 84.96H718.309V82.96H669.157V84.96ZM717.309 83.96V98.68H719.309V83.96H717.309ZM718.309 97.68H684.517V99.68H718.309V97.68ZM683.517 98.68V119.544H685.517V98.68H683.517ZM684.517 120.544H714.469V118.544H684.517V120.544ZM713.469 119.544V134.264H715.469V119.544H713.469ZM714.469 133.264H684.517V135.264H714.469V133.264ZM683.517 134.264V156.28H685.517V134.264H683.517ZM684.517 157.28H719.589V155.28H684.517V157.28Z" fill="black"/>
</svg>
