<svg width="912" height="292" viewBox="0 0 912 292" fill="none" xmlns="http://www.w3.org/2000/svg">
<path fill-rule="evenodd" clip-rule="evenodd" d="M194 23H211V53H194C176.879 53 163 66.8792 163 84V100H133V84C133 50.3106 160.311 23 194 23ZM133 190V207C133 240.689 160.311 268 194 268H211V238H194C176.879 238 163 224.121 163 207V190H133ZM748 190V207C748 224.121 734.121 238 717 238H701V268H717C750.689 268 778 240.689 778 207V190H748ZM778 100V84C778 50.3106 750.689 23 717 23H701V53H717C734.121 53 748 66.8792 748 84V100H778Z" fill="#4A95BF"/>
<g opacity="0.5" filter="url(#filter0_f_101_7)">
<path d="M228.374 168.629V231.486H213V60.5143H242.082C250.88 60.5143 257.627 64.9562 262.325 73.84C267.107 82.5562 269.499 94.2895 269.499 109.04V119.851C269.499 129.573 268.431 138.122 266.296 145.497C264.161 152.872 261.086 158.488 257.072 162.343C264.075 185.81 270.054 208.857 275.008 231.486H257.456C253.186 210.533 248.104 189.581 242.21 168.629H228.374ZM242.082 88.1714H228.374V140.971H242.082C245.84 140.971 248.702 139.128 250.666 135.44C252.716 131.585 253.741 126.389 253.741 119.851V109.04C253.741 102.67 252.716 97.6419 250.666 93.9543C248.702 90.099 245.84 88.1714 242.082 88.1714Z" fill="#4A95BF"/>
<path d="M341.548 202.571V231.486H291.07V60.5143H340.267V89.4286H306.444V130.411H336.423V159.326H306.444V202.571H341.548Z" fill="#4A95BF"/>
<path d="M378.719 206.091C388.626 206.091 393.58 198.884 393.58 184.469C393.58 178.602 392.811 173.992 391.274 170.64C389.822 167.288 387.089 164.354 383.074 161.84L372.569 155.051C360.014 147.006 353.736 130.83 353.736 106.526C353.736 92.4457 355.957 80.88 360.398 71.8286C364.925 62.6095 371.971 58 381.537 58C385.551 58 389.523 58.9219 393.452 60.7657C397.381 62.4419 401.566 65.2076 406.007 69.0629L401.267 94.96C397.167 91.7752 393.665 89.5124 390.761 88.1714C387.943 86.6629 385.039 85.9086 382.05 85.9086C378.121 85.9086 375.003 87.3333 372.697 90.1829C370.476 92.8648 369.366 97.8095 369.366 105.017C369.366 110.381 370.135 114.823 371.672 118.343C373.295 121.695 375.943 124.545 379.615 126.891L390.121 133.68C396.441 137.87 401.181 143.989 404.342 152.034C407.587 159.912 409.21 170.389 409.21 183.463C409.21 198.549 406.776 210.785 401.907 220.171C397.039 229.39 389.395 234 378.975 234C374.875 234 370.605 233.078 366.163 231.234C361.807 229.223 357.024 225.87 351.814 221.177L356.555 195.28C361.338 199.303 365.395 202.152 368.726 203.829C372.142 205.337 375.473 206.091 378.719 206.091Z" fill="#4A95BF"/>
<path d="M415.69 89.4286V60.5143H479.748V89.4286H455.406V231.486H440.032V89.4286H415.69Z" fill="#4A95BF"/>
<path d="M555.127 127.897V163.851C555.127 185.642 552.351 202.823 546.799 215.394C541.247 227.798 533.134 234 522.457 234C511.695 234 503.539 227.798 497.987 215.394C492.521 202.823 489.788 185.642 489.788 163.851V127.897C489.788 106.107 492.521 89.0095 497.987 76.6057C503.539 64.2019 511.695 58 522.457 58C533.134 58 541.247 64.2019 546.799 76.6057C552.351 89.0095 555.127 106.107 555.127 127.897ZM539.368 127.897C539.368 114.152 538.002 103.844 535.269 96.9714C532.536 89.9314 528.265 86.4114 522.457 86.4114C516.649 86.4114 512.379 89.9314 509.646 96.9714C506.913 103.844 505.546 114.152 505.546 127.897V163.851C505.546 177.596 506.913 187.989 509.646 195.029C512.379 202.069 516.649 205.589 522.457 205.589C528.265 205.589 532.536 202.069 535.269 195.029C538.002 187.989 539.368 177.596 539.368 163.851V127.897Z" fill="#4A95BF"/>
<path d="M590.826 168.629V231.486H575.452V60.5143H604.534C613.332 60.5143 620.079 64.9562 624.777 73.84C629.56 82.5562 631.951 94.2895 631.951 109.04V119.851C631.951 129.573 630.883 138.122 628.748 145.497C626.613 152.872 623.538 158.488 619.524 162.343C626.527 185.81 632.506 208.857 637.46 231.486H619.908C615.638 210.533 610.556 189.581 604.662 168.629H590.826ZM604.534 88.1714H590.826V140.971H604.534C608.292 140.971 611.154 139.128 613.118 135.44C615.168 131.585 616.193 126.389 616.193 119.851V109.04C616.193 102.67 615.168 97.6419 613.118 93.9543C611.154 90.099 608.292 88.1714 604.534 88.1714Z" fill="#4A95BF"/>
<path d="M704 202.571V231.486H653.522V60.5143H702.719V89.4286H668.896V130.411H698.875V159.326H668.896V202.571H704Z" fill="#4A95BF"/>
</g>
<path d="M228.392 162V194H213.032V106.96H242.088C250.877 106.96 257.619 109.221 262.312 113.744C267.091 118.181 269.48 124.155 269.48 131.664V137.168C269.48 142.117 268.413 146.469 266.28 150.224C264.147 153.979 261.075 156.837 257.064 158.8C264.061 170.747 270.035 182.48 274.984 194H257.448C253.181 183.333 248.104 172.667 242.216 162H228.392ZM242.088 121.04H228.392V147.92H242.088C245.843 147.92 248.701 146.981 250.664 145.104C252.712 143.141 253.736 140.496 253.736 137.168V131.664C253.736 128.421 252.712 125.861 250.664 123.984C248.701 122.021 245.843 121.04 242.088 121.04ZM341.464 179.28V194H291.032V106.96H340.184V121.68H306.392V142.544H336.344V157.264H306.392V179.28H341.464ZM378.601 181.072C388.5 181.072 393.449 177.403 393.449 170.064C393.449 167.077 392.681 164.731 391.145 163.024C389.694 161.317 386.964 159.824 382.953 158.544L372.457 155.088C359.913 150.992 353.641 142.757 353.641 130.384C353.641 123.216 355.86 117.328 360.297 112.72C364.82 108.027 371.86 105.68 381.417 105.68C385.428 105.68 389.396 106.149 393.321 107.088C397.246 107.941 401.428 109.349 405.865 111.312L401.129 124.496C397.033 122.875 393.534 121.723 390.633 121.04C387.817 120.272 384.916 119.888 381.929 119.888C378.004 119.888 374.889 120.613 372.585 122.064C370.366 123.429 369.257 125.947 369.257 129.616C369.257 132.347 370.025 134.608 371.561 136.4C373.182 138.107 375.828 139.557 379.497 140.752L389.993 144.208C396.308 146.341 401.044 149.456 404.201 153.552C407.444 157.563 409.065 162.896 409.065 169.552C409.065 177.232 406.633 183.461 401.769 188.24C396.905 192.933 389.268 195.28 378.857 195.28C374.761 195.28 370.494 194.811 366.057 193.872C361.705 192.848 356.926 191.141 351.721 188.752L356.457 175.568C361.236 177.616 365.289 179.067 368.617 179.92C372.03 180.688 375.358 181.072 378.601 181.072ZM415.539 121.68V106.96H479.539V121.68H455.219V194H439.859V121.68H415.539ZM554.85 141.264V159.568C554.85 170.661 552.077 179.408 546.53 185.808C540.983 192.123 532.877 195.28 522.21 195.28C511.458 195.28 503.309 192.123 497.762 185.808C492.301 179.408 489.57 170.661 489.57 159.568V141.264C489.57 130.171 492.301 121.467 497.762 115.152C503.309 108.837 511.458 105.68 522.21 105.68C532.877 105.68 540.983 108.837 546.53 115.152C552.077 121.467 554.85 130.171 554.85 141.264ZM539.106 141.264C539.106 134.267 537.741 129.019 535.01 125.52C532.279 121.936 528.013 120.144 522.21 120.144C516.407 120.144 512.141 121.936 509.41 125.52C506.679 129.019 505.314 134.267 505.314 141.264V159.568C505.314 166.565 506.679 171.856 509.41 175.44C512.141 179.024 516.407 180.816 522.21 180.816C528.013 180.816 532.279 179.024 535.01 175.44C537.741 171.856 539.106 166.565 539.106 159.568V141.264ZM590.517 162V194H575.157V106.96H604.213C613.002 106.96 619.744 109.221 624.437 113.744C629.216 118.181 631.605 124.155 631.605 131.664V137.168C631.605 142.117 630.538 146.469 628.405 150.224C626.272 153.979 623.2 156.837 619.189 158.8C626.186 170.747 632.16 182.48 637.109 194H619.573C615.306 183.333 610.229 172.667 604.341 162H590.517ZM604.213 121.04H590.517V147.92H604.213C607.968 147.92 610.826 146.981 612.789 145.104C614.837 143.141 615.861 140.496 615.861 137.168V131.664C615.861 128.421 614.837 125.861 612.789 123.984C610.826 122.021 607.968 121.04 604.213 121.04ZM703.589 179.28V194H653.157V106.96H702.309V121.68H668.517V142.544H698.469V157.264H668.517V179.28H703.589Z" fill="#4A95BF"/>
<defs>
<filter id="filter0_f_101_7" x="155" y="0" width="607" height="292" filterUnits="userSpaceOnUse" color-interpolation-filters="sRGB">
<feFlood flood-opacity="0" result="BackgroundImageFix"/>
<feBlend mode="normal" in="SourceGraphic" in2="BackgroundImageFix" result="shape"/>
<feGaussianBlur stdDeviation="29" result="effect1_foregroundBlur_101_7"/>
</filter>
</defs>
</svg>
