<svg width="645" height="245" viewBox="0 0 645 245" fill="none" xmlns="http://www.w3.org/2000/svg">
<path fill-rule="evenodd" clip-rule="evenodd" d="M61 0H78V30H61C43.8792 30 30 43.8792 30 61V77H0V61C0 27.3106 27.3106 0 61 0ZM0 167V184C0 217.689 27.3106 245 61 245H78V215H61C43.8792 215 30 201.121 30 184V167H0ZM615 167V184C615 201.121 601.121 215 584 215H568V245H584C617.689 245 645 217.689 645 184V167H615ZM645 77V61C645 27.3106 617.689 0 584 0H568V30H584C601.121 30 615 43.8792 615 61V77H645Z" fill="#4A95BF"/>
<path d="M95.392 139V171H80.032V83.96H109.088C117.877 83.96 124.619 86.2213 129.312 90.744C134.091 95.1813 136.48 101.155 136.48 108.664V114.168C136.48 119.117 135.413 123.469 133.28 127.224C131.147 130.979 128.075 133.837 124.064 135.8C131.061 147.747 137.035 159.48 141.984 171H124.448C120.181 160.333 115.104 149.667 109.216 139H95.392ZM109.088 98.04H95.392V124.92H109.088C112.843 124.92 115.701 123.981 117.664 122.104C119.712 120.141 120.736 117.496 120.736 114.168V108.664C120.736 105.421 119.712 102.861 117.664 100.984C115.701 99.0213 112.843 98.04 109.088 98.04ZM208.464 156.28V171H158.032V83.96H207.184V98.68H173.392V119.544H203.344V134.264H173.392V156.28H208.464ZM245.601 158.072C255.5 158.072 260.449 154.403 260.449 147.064C260.449 144.077 259.681 141.731 258.145 140.024C256.694 138.317 253.964 136.824 249.953 135.544L239.457 132.088C226.913 127.992 220.641 119.757 220.641 107.384C220.641 100.216 222.86 94.328 227.297 89.72C231.82 85.0267 238.86 82.68 248.417 82.68C252.428 82.68 256.396 83.1493 260.321 84.088C264.246 84.9413 268.428 86.3493 272.865 88.312L268.129 101.496C264.033 99.8747 260.534 98.7227 257.633 98.04C254.817 97.272 251.916 96.888 248.929 96.888C245.004 96.888 241.889 97.6133 239.585 99.064C237.366 100.429 236.257 102.947 236.257 106.616C236.257 109.347 237.025 111.608 238.561 113.4C240.182 115.107 242.828 116.557 246.497 117.752L256.993 121.208C263.308 123.341 268.044 126.456 271.201 130.552C274.444 134.563 276.065 139.896 276.065 146.552C276.065 154.232 273.633 160.461 268.769 165.24C263.905 169.933 256.268 172.28 245.857 172.28C241.761 172.28 237.494 171.811 233.057 170.872C228.705 169.848 223.926 168.141 218.721 165.752L223.457 152.568C228.236 154.616 232.289 156.067 235.617 156.92C239.03 157.688 242.358 158.072 245.601 158.072ZM282.539 98.68V83.96H346.539V98.68H322.219V171H306.859V98.68H282.539ZM421.85 118.264V136.568C421.85 147.661 419.077 156.408 413.53 162.808C407.983 169.123 399.877 172.28 389.21 172.28C378.458 172.28 370.309 169.123 364.762 162.808C359.301 156.408 356.57 147.661 356.57 136.568V118.264C356.57 107.171 359.301 98.4667 364.762 92.152C370.309 85.8373 378.458 82.68 389.21 82.68C399.877 82.68 407.983 85.8373 413.53 92.152C419.077 98.4667 421.85 107.171 421.85 118.264ZM406.106 118.264C406.106 111.267 404.741 106.019 402.01 102.52C399.279 98.936 395.013 97.144 389.21 97.144C383.407 97.144 379.141 98.936 376.41 102.52C373.679 106.019 372.314 111.267 372.314 118.264V136.568C372.314 143.565 373.679 148.856 376.41 152.44C379.141 156.024 383.407 157.816 389.21 157.816C395.013 157.816 399.279 156.024 402.01 152.44C404.741 148.856 406.106 143.565 406.106 136.568V118.264ZM457.517 139V171H442.157V83.96H471.213C480.002 83.96 486.744 86.2213 491.437 90.744C496.216 95.1813 498.605 101.155 498.605 108.664V114.168C498.605 119.117 497.538 123.469 495.405 127.224C493.272 130.979 490.2 133.837 486.189 135.8C493.186 147.747 499.16 159.48 504.109 171H486.573C482.306 160.333 477.229 149.667 471.341 139H457.517ZM471.213 98.04H457.517V124.92H471.213C474.968 124.92 477.826 123.981 479.789 122.104C481.837 120.141 482.861 117.496 482.861 114.168V108.664C482.861 105.421 481.837 102.861 479.789 100.984C477.826 99.0213 474.968 98.04 471.213 98.04ZM570.589 156.28V171H520.157V83.96H569.309V98.68H535.517V119.544H565.469V134.264H535.517V156.28H570.589Z" fill="#4A95BF"/>
</svg>
